<svg width="2000" height="2000" viewBox="0 0 2000 2000" fill="none" xmlns="http://www.w3.org/2000/svg">
<circle cx="1000" cy="1000" r="995" fill="white" stroke="black" stroke-width="40"/>
<path d="M1718 312L1643 241L7.5 1071L9 1094.5L19.5 1170L40 1262L55 1309L68.5 1350.5L86.5 1394.5L104 1433L128.5 1479.5L147.5 1514.5L183.5 1568.5L226 1625L282.5 1690L1980 828.5L1970.5 785L1959 734.5L1945 685.5L1925 631.5L1889 553.5L1849 482L1808 420L1766 365L1718 312Z" fill="#674EA7"/>
<path d="M249.072 1128.25C262.32 1119.73 275.495 1111.79 288.596 1104.46C301.548 1096.83 316.659 1088.67 333.932 1079.98C360.734 1066.5 385.909 1059.07 409.46 1057.67C433.01 1056.27 454.856 1059.65 475 1067.81C495.143 1075.96 513.06 1088.22 528.751 1104.58C544.739 1120.79 558.199 1139.76 569.131 1161.5C580.064 1183.24 587.345 1205.51 590.975 1228.31C594.456 1250.81 593.314 1272.66 587.549 1293.84C582.081 1314.87 571.394 1334.79 555.487 1353.61C539.728 1371.99 517.852 1388.21 489.859 1402.29C472.884 1410.82 457.77 1417.87 444.515 1423.41C431.708 1429.11 418.676 1434.35 405.42 1439.15L249.072 1128.25ZM351.012 1117.29C342.376 1121.63 334.634 1125.89 327.786 1130.08C320.789 1133.98 314.462 1137.72 308.806 1141.31L430.335 1382.97C437.038 1380.72 443.889 1378.02 450.888 1374.87C457.887 1371.73 465.109 1368.28 472.554 1364.54C492.506 1354.5 508.281 1342.84 519.878 1329.55C531.325 1315.95 538.969 1301.48 542.809 1286.11C546.798 1270.3 547.281 1253.83 544.261 1236.69C541.09 1219.26 534.937 1201.46 525.802 1183.29C517.715 1167.21 507.769 1153 495.963 1140.65C484.009 1128.01 470.57 1118.35 455.647 1111.68C440.575 1104.71 424.244 1101.54 406.655 1102.18C388.917 1102.51 370.369 1107.55 351.012 1117.29ZM681.257 1176.75C694.869 1197.15 710.999 1210.3 729.647 1216.22C748.294 1222.14 767.892 1219.93 788.44 1209.6C801.841 1202.86 813.228 1195.46 822.601 1187.39C831.824 1179.02 840.226 1170.13 847.807 1160.72L874.485 1190.4C866.31 1200.85 856.271 1210.94 844.368 1220.65C832.464 1230.37 818.174 1239.42 801.498 1247.81C784.821 1256.19 768.434 1261.08 752.338 1262.46C736.091 1263.54 720.658 1261.41 706.036 1256.08C691.563 1250.3 678.051 1241.24 665.501 1228.89C652.8 1216.25 641.583 1200.25 631.849 1180.89C623.163 1163.62 617.607 1146.27 615.182 1128.83C612.756 1111.4 613.464 1095 617.304 1079.63C620.995 1063.97 627.745 1049.94 637.556 1037.55C647.216 1024.85 659.938 1014.54 675.721 1006.6C692.398 998.215 708.413 993.706 723.765 993.075C739.118 992.443 753.435 994.944 766.715 1000.58C779.996 1006.21 792.015 1014.53 802.774 1025.54C813.532 1036.55 822.581 1049.34 829.919 1063.94C835.16 1074.36 839.805 1084.71 843.854 1094.99L681.257 1176.75ZM692.349 1041.89C674.779 1050.73 663.331 1063.95 658.005 1081.55C652.977 1099 655.112 1119.94 664.411 1144.37L791.72 1080.35C780.338 1057.72 765.919 1043.14 748.463 1036.62C731.006 1030.1 712.302 1031.86 692.349 1041.89ZM948.199 1071.06C956.286 1087.14 965.552 1097.4 975.997 1101.85C986.741 1106.15 998.068 1105.3 1009.98 1099.31C1015.64 1096.47 1020.85 1093.1 1025.61 1089.21C1030.22 1085.03 1034.16 1080.99 1037.43 1077.11L1063.66 1104.78C1059.5 1109.86 1053.84 1115.31 1046.7 1121.14C1039.86 1126.82 1031.67 1132.06 1022.14 1136.85C1011.72 1142.09 1001.29 1145.47 990.86 1146.98C980.726 1148.35 970.811 1147.55 961.114 1144.59C951.418 1141.63 942.163 1136.21 933.35 1128.33C924.834 1120.3 917.057 1109.29 910.018 1095.29L780.402 837.549L820.605 817.332L948.199 1071.06ZM1143.49 1069.11L1103.29 1089.32L986.48 857.041L1026.68 836.824L1143.49 1069.11ZM986.589 807.177C978.846 811.07 970.798 811.76 962.444 809.245C954.238 806.282 948.189 800.93 944.295 793.187C939.952 784.551 939.039 776.428 941.555 768.82C944.072 761.211 949.649 755.236 958.285 750.893C966.027 746.999 974.002 746.533 982.207 749.496C990.561 752.011 996.685 757.14 1000.58 764.882C1004.92 773.519 1005.83 781.641 1003.32 789.249C1000.8 796.858 995.225 802.834 986.589 807.177ZM1267.8 768.738C1257.07 768.912 1247.53 769.978 1239.18 771.935C1230.69 773.594 1221.83 776.745 1212.6 781.388C1202.17 786.629 1193.32 793.507 1186.03 802.021C1179.05 810.385 1174.15 819.937 1171.34 830.676C1168.39 841.118 1167.59 852.524 1168.96 864.894C1170.63 877.114 1174.83 889.924 1181.57 903.325C1187.71 915.535 1195.04 926.028 1203.56 934.803C1212.37 943.429 1221.93 950.19 1232.23 955.085C1242.37 959.683 1252.89 962.044 1263.77 962.168C1274.65 962.292 1285.46 959.658 1296.18 954.267C1307.49 948.576 1316.57 942.518 1323.42 936.092C1330.26 929.666 1337.02 921.601 1343.71 911.896L1373.29 939.555C1366.3 949.409 1357.9 958.671 1348.08 967.34C1338.27 976.009 1326.06 984.012 1311.47 991.351C1294.79 999.737 1278.26 1004.32 1261.86 1005.1C1245.46 1005.89 1229.8 1003.32 1214.88 997.387C1199.96 991.459 1186.08 982.397 1173.23 970.203C1160.68 957.859 1149.91 942.753 1140.93 924.885C1132.54 908.209 1127.21 891.301 1124.93 874.163C1122.81 856.578 1123.88 839.805 1128.17 823.844C1132.46 807.884 1139.88 793.332 1150.43 780.189C1161.13 766.599 1175.12 755.461 1192.39 746.775C1205.79 740.036 1218.01 735.387 1229.03 732.827C1240.06 730.267 1251.31 728.9 1262.79 728.724L1267.8 768.738ZM1465.87 906.99L1425.66 927.207L1308.85 694.925L1349.06 674.707L1465.87 906.99ZM1308.96 645.06C1301.22 648.954 1293.17 649.643 1284.82 647.128C1276.61 644.166 1270.56 638.813 1266.67 631.07C1262.32 622.434 1261.41 614.312 1263.93 606.703C1266.44 599.095 1272.02 593.119 1280.66 588.776C1288.4 584.883 1296.37 584.417 1304.58 587.379C1312.93 589.894 1319.06 595.023 1322.95 602.766C1327.29 611.402 1328.21 619.524 1325.69 627.133C1323.17 634.741 1317.6 640.717 1308.96 645.06ZM1463.97 764.109C1455.29 746.837 1449.88 729.408 1447.75 711.822C1445.47 693.939 1446.33 677.092 1450.32 661.281C1454.6 645.32 1461.88 630.844 1472.13 617.851C1482.69 604.708 1496 594.093 1512.08 586.006C1525.48 579.267 1538.74 575.584 1551.86 574.958C1565.13 573.884 1577.5 574.75 1588.99 577.556L1579.55 558.794L1616.18 540.374L1704.69 716.373C1710.38 727.689 1716.8 733.786 1723.96 734.664C1731.26 735.094 1738.19 733.662 1744.74 730.367L1751.98 765.904C1723.39 780.281 1700.28 777.353 1682.64 757.12C1681.47 763.682 1679.69 770.543 1677.32 777.704C1675.1 784.417 1671.91 791.058 1667.76 797.627C1663.6 804.196 1658.32 810.395 1651.92 816.223C1645.53 822.052 1637.86 827.212 1628.93 831.705C1614.33 839.043 1599.21 843.103 1583.56 843.885C1568.21 844.516 1553.15 842.017 1538.38 836.386C1523.9 830.606 1510.17 821.842 1497.17 810.095C1484.32 797.901 1473.26 782.572 1463.97 764.109ZM1619.89 791.477C1631.21 785.786 1640.58 777.714 1648.01 767.262C1655.44 756.81 1660.41 745.544 1662.91 733.463L1600.24 608.835C1589.35 607.22 1578.17 607.246 1566.7 608.912C1555.37 610.131 1544.35 613.436 1533.63 618.827C1522.91 624.218 1514.13 631.245 1507.29 639.907C1500.45 648.569 1495.7 658.418 1493.05 669.456C1490.54 680.046 1490.19 691.6 1492.01 704.117C1493.83 716.635 1497.95 729.297 1504.39 742.102C1510.68 754.61 1518.31 765.325 1527.28 774.249C1536.09 782.875 1545.72 789.412 1556.17 793.86C1566.46 798.01 1576.98 799.998 1587.71 799.824C1598.74 799.501 1609.47 796.718 1619.89 791.477Z" fill="white"/>
</svg>
